<svg width="29" height="29" viewBox="0 0 29 29" fill="none" xmlns="http://www.w3.org/2000/svg">
<g clip-path="url(#clip0_5_92)">
<mask id="mask0_5_92" style="mask-type:alpha" maskUnits="userSpaceOnUse" x="0" y="0" width="29" height="29">
<path d="M29 14.5C29 6.49187 22.5081 0 14.5 0C6.49187 0 0 6.49187 0 14.5C0 22.5081 6.49187 29 14.5 29C22.5081 29 29 22.5081 29 14.5Z" fill="white"/>
</mask>
<g mask="url(#mask0_5_92)">
<path d="M10.875 0H7.25V3.625H10.875V0Z" fill="#FFAD08"/>
<path d="M18.125 0H14.5V3.625H18.125V0Z" fill="#FFAD08"/>
<path d="M25.375 0H21.75V3.625H25.375V0Z" fill="#EDD75A"/>
<path d="M7.25 0H3.625V3.625H7.25V0Z" fill="#FFAD08"/>
<path d="M14.5 0H10.875V3.625H14.5V0Z" fill="#FFAD08"/>
<path d="M21.75 0H18.125V3.625H21.75V0Z" fill="#405059"/>
<path d="M29 0H25.375V3.625H29V0Z" fill="#405059"/>
<path d="M3.625 3.625H0V7.25H3.625V3.625Z" fill="#405059"/>
<path d="M3.625 7.25H0V10.875H3.625V7.25Z" fill="#EDD75A"/>
<path d="M3.625 10.875H0V14.5H3.625V10.875Z" fill="#FFAD08"/>
<path d="M3.625 14.5H0V18.125H3.625V14.5Z" fill="#405059"/>
<path d="M3.625 18.125H0V21.75H3.625V18.125Z" fill="#405059"/>
<path d="M3.625 21.75H0V25.375H3.625V21.75Z" fill="#EDD75A"/>
<path d="M3.625 25.375H0V29H3.625V25.375Z" fill="#405059"/>
<path d="M10.875 3.625H7.25V7.25H10.875V3.625Z" fill="#FFAD08"/>
<path d="M10.875 7.25H7.25V10.875H10.875V7.25Z" fill="#73B06F"/>
<path d="M10.875 10.875H7.25V14.5H10.875V10.875Z" fill="#FFAD08"/>
<path d="M10.875 14.5H7.25V18.125H10.875V14.5Z" fill="#FFAD08"/>
<path d="M10.875 18.125H7.25V21.75H10.875V18.125Z" fill="#405059"/>
<path d="M10.875 21.75H7.25V25.375H10.875V21.75Z" fill="#FFAD08"/>
<path d="M10.875 25.375H7.25V29H10.875V25.375Z" fill="#405059"/>
<path d="M18.125 3.625H14.5V7.25H18.125V3.625Z" fill="#FFAD08"/>
<path d="M18.125 7.25H14.5V10.875H18.125V7.25Z" fill="#73B06F"/>
<path d="M18.125 10.875H14.5V14.5H18.125V10.875Z" fill="#405059"/>
<path d="M18.125 14.5H14.5V18.125H18.125V14.5Z" fill="#FFAD08"/>
<path d="M18.125 18.125H14.5V21.75H18.125V18.125Z" fill="#405059"/>
<path d="M18.125 21.75H14.5V25.375H18.125V21.75Z" fill="#EDD75A"/>
<path d="M18.125 25.375H14.5V29H18.125V25.375Z" fill="#405059"/>
<path d="M25.375 3.625H21.75V7.25H25.375V3.625Z" fill="#405059"/>
<path d="M25.375 7.25H21.75V10.875H25.375V7.25Z" fill="#FFAD08"/>
<path d="M25.375 10.875H21.75V14.5H25.375V10.875Z" fill="#FFAD08"/>
<path d="M25.375 14.5H21.75V18.125H25.375V14.5Z" fill="#0C8F8F"/>
<path d="M25.375 18.125H21.75V21.75H25.375V18.125Z" fill="#EDD75A"/>
<path d="M25.375 21.75H21.75V25.375H25.375V21.75Z" fill="#FFAD08"/>
<path d="M25.375 25.375H21.75V29H25.375V25.375Z" fill="#FFAD08"/>
<path d="M7.25 3.625H3.625V7.25H7.25V3.625Z" fill="#0C8F8F"/>
<path d="M7.25 7.25H3.625V10.875H7.25V7.25Z" fill="#0C8F8F"/>
<path d="M7.25 10.875H3.625V14.5H7.25V10.875Z" fill="#405059"/>
<path d="M7.25 14.5H3.625V18.125H7.25V14.5Z" fill="#73B06F"/>
<path d="M7.25 18.125H3.625V21.75H7.25V18.125Z" fill="#FFAD08"/>
<path d="M7.25 21.75H3.625V25.375H7.25V21.75Z" fill="#FFAD08"/>
<path d="M7.25 25.375H3.625V29H7.25V25.375Z" fill="#405059"/>
<path d="M14.5 3.625H10.875V7.25H14.5V3.625Z" fill="#EDD75A"/>
<path d="M14.5 7.25H10.875V10.875H14.5V7.25Z" fill="#FFAD08"/>
<path d="M14.5 10.875H10.875V14.5H14.5V10.875Z" fill="#FFAD08"/>
<path d="M14.5 14.5H10.875V18.125H14.5V14.5Z" fill="#73B06F"/>
<path d="M14.5 18.125H10.875V21.75H14.5V18.125Z" fill="#73B06F"/>
<path d="M14.5 21.75H10.875V25.375H14.5V21.75Z" fill="#0C8F8F"/>
<path d="M14.5 25.375H10.875V29H14.5V25.375Z" fill="#EDD75A"/>
<path d="M21.75 3.625H18.125V7.25H21.75V3.625Z" fill="#FFAD08"/>
<path d="M21.75 7.25H18.125V10.875H21.75V7.25Z" fill="#FFAD08"/>
<path d="M21.75 10.875H18.125V14.5H21.75V10.875Z" fill="#405059"/>
<path d="M21.75 14.5H18.125V18.125H21.75V14.5Z" fill="#405059"/>
<path d="M21.75 18.125H18.125V21.75H21.75V18.125Z" fill="#0C8F8F"/>
<path d="M21.75 21.75H18.125V25.375H21.75V21.75Z" fill="#FFAD08"/>
<path d="M21.75 25.375H18.125V29H21.75V25.375Z" fill="#405059"/>
<path d="M29 3.625H25.375V7.25H29V3.625Z" fill="#405059"/>
<path d="M29 7.25H25.375V10.875H29V7.25Z" fill="#405059"/>
<path d="M29 10.875H25.375V14.5H29V10.875Z" fill="#EDD75A"/>
<path d="M29 14.5H25.375V18.125H29V14.5Z" fill="#FFAD08"/>
<path d="M29 18.125H25.375V21.75H29V18.125Z" fill="#405059"/>
<path d="M29 21.75H25.375V25.375H29V21.75Z" fill="#FFAD08"/>
<path d="M29 25.375H25.375V29H29V25.375Z" fill="#EDD75A"/>
</g>
</g>
<defs>
<clipPath id="clip0_5_92">
<rect width="29" height="29" fill="white"/>
</clipPath>
</defs>
</svg>
