<svg width="38" height="43" viewBox="0 0 38 43" fill="none" xmlns="http://www.w3.org/2000/svg">
<path opacity="0.33" fill-rule="evenodd" clip-rule="evenodd" d="M0.548828 4.25842C0.548828 3.12908 0.997457 2.046 1.79602 1.24744C2.59458 0.448872 3.67767 0.000244141 4.80701 0.000244141L28.1049 0.000244141L37.453 9.34837V38.3239C37.453 39.4532 37.0044 40.5363 36.2059 41.3348C35.4073 42.1334 34.3242 42.582 33.1949 42.582H4.80701C3.67767 42.582 2.59458 42.1334 1.79602 41.3348C0.997457 40.5363 0.548828 39.4532 0.548828 38.3239V4.25842ZM9.06519 19.8717H3.38761V17.033H11.904V31.2269H3.38761V25.5493H6.2264V28.3881H9.06519V19.8717ZM14.7428 17.033H19.0009C20.1303 17.033 21.2134 17.4816 22.0119 18.2802C22.8105 19.0787 23.2591 20.1618 23.2591 21.2911C23.2591 22.4205 22.8105 23.5036 22.0119 24.3021C21.2134 25.1007 20.1303 25.5493 19.0009 25.5493H17.5815V31.2269H14.7428V17.033ZM26.0979 17.033H34.6143V19.8717H28.9367V28.3881H31.7755V24.1299H34.6143V31.2269H26.0979V17.033Z" fill="#AEAEAE"/>
</svg>
