<svg width="46" height="51" viewBox="0 0 46 51" fill="none" xmlns="http://www.w3.org/2000/svg">
<path opacity="0.33" fill-rule="evenodd" clip-rule="evenodd" d="M13.0346 2.97391C13.4404 1.92003 14.2484 1.07055 15.2806 0.612343C16.3128 0.154138 17.4847 0.124745 18.5386 0.530627L40.2799 8.90386L45.6437 20.9871L35.2299 48.0266C34.824 49.0804 34.0161 49.9299 32.9839 50.3881C31.9517 50.8463 30.7798 50.8757 29.7259 50.4698L3.23478 40.2673C2.18089 39.8614 1.33141 39.0535 0.873208 38.0213C0.415004 36.9891 0.38561 35.8171 0.791493 34.7632L13.0346 2.97391ZM19.0399 18.9759L11.0925 15.9152L8.03175 23.8625L13.33 25.903L12.3097 28.5521L7.0115 26.5116L5.99124 29.1607L13.9386 32.2215L16.9993 24.2741L11.7011 22.2336L12.7214 19.5845L18.0196 21.625L19.0399 18.9759ZM24.3381 21.0164L21.689 19.9962L17.9069 29.8164L20.3502 35.3205L25.8542 32.8772L29.6363 23.0569L26.9872 22.0367L23.6275 30.7602L21.7928 31.5746L20.9784 29.74L24.3381 21.0164ZM32.2854 24.0772L40.2327 27.138L39.2125 29.7871L33.9143 27.7466L30.8535 35.6939L33.5026 36.7142L35.033 32.7405L37.6821 33.7607L35.1315 40.3835L27.1841 37.3228L32.2854 24.0772Z" fill="#AEAEAE"/>
</svg>
