<svg width="48" height="49" viewBox="0 0 48 49" fill="none" xmlns="http://www.w3.org/2000/svg">
<path opacity="0.33" fill-rule="evenodd" clip-rule="evenodd" d="M0.530157 14.2352C0.124334 13.1813 0.153795 12.0094 0.612058 10.9772C1.07032 9.945 1.91985 9.13714 2.97375 8.73132L24.7155 0.359318L36.7984 5.72382L47.2106 32.7639C47.6164 33.8178 47.587 34.9897 47.1287 36.0219C46.6704 37.0541 45.8209 37.862 44.767 38.2678L18.2753 48.4688C17.2214 48.8747 16.0495 48.8452 15.0173 48.3869C13.9851 47.9287 13.1772 47.0791 12.7714 46.0252L0.530157 14.2352ZM7.7698 25.1364L11.7435 23.6062C12.7975 23.2004 13.9694 23.2299 15.0016 23.6881C16.0338 24.1464 16.8416 24.9959 17.2475 26.0498C17.6533 27.1037 17.6238 28.2757 17.1656 29.3079C16.7073 30.34 15.8578 31.1479 14.8039 31.5537L13.4793 32.0638L15.5195 37.3621L12.8703 38.3822L7.7698 25.1364ZM28.9631 16.9755L36.9106 13.9152L37.9308 16.5644L32.6324 18.6046L35.6927 26.5521L38.3419 25.532L36.8117 21.5583L39.4609 20.5381L42.0112 27.1611L34.0637 30.2214L28.9631 16.9755ZM23.6863 26.9714L26.1162 33.2817L23.467 34.3018L18.3665 21.056L21.0156 20.0359L21.4053 21.0478L26.0947 25.3261L23.6648 19.0157L26.314 17.9956L31.4145 31.2415L28.7653 32.2616L28.3757 31.2496L23.6863 26.9714Z" fill="#AEAEAE"/>
</svg>
