<svg width="19" height="19" viewBox="0 0 19 19" fill="none" xmlns="http://www.w3.org/2000/svg">
<g clip-path="url(#clip0_108_494)">
<path d="M9.5 0C6.98102 0 4.56297 1.00151 2.7832 2.78246C1.00161 4.56413 0.000509806 6.9804 0 9.5C0 12.0185 1.00195 14.4366 2.7832 16.2175C4.56297 17.9985 6.98102 19 9.5 19C12.019 19 14.437 17.9985 16.2168 16.2175C17.998 14.4366 19 12.0185 19 9.5C19 6.98146 17.998 4.56341 16.2168 2.78246C14.437 1.00151 12.019 0 9.5 0Z" fill="url(#paint0_linear_108_494)"/>
<path d="M4.30017 9.3996C7.07001 8.1931 8.91658 7.39767 9.83986 7.01332C12.4791 5.91592 13.0268 5.72532 13.3845 5.71887C13.4632 5.71761 13.6384 5.73705 13.7527 5.82945C13.8477 5.90738 13.8744 6.01277 13.8877 6.08677C13.8996 6.16069 13.916 6.32917 13.9026 6.46068C13.7601 7.96287 13.1411 11.6082 12.8264 13.2907C12.6943 14.0026 12.4316 14.2413 12.1777 14.2646C11.6256 14.3154 11.207 13.9001 10.6726 13.5499C9.83689 13.0017 9.36486 12.6606 8.5529 12.1258C7.61478 11.5077 8.22337 11.1679 8.75775 10.6128C8.89728 10.4675 11.3287 8.25648 11.3747 8.05594C11.3806 8.03086 11.3866 7.93734 11.3302 7.88806C11.2752 7.83863 11.1936 7.85555 11.1342 7.86891C11.0496 7.88791 9.71517 8.77082 7.12642 10.5175C6.7479 10.7778 6.40501 10.9048 6.09626 10.8981C5.75783 10.8908 5.1047 10.7063 4.61931 10.5487C4.02556 10.3552 3.55204 10.253 3.59361 9.92447C3.61439 9.75347 3.8504 9.57846 4.30017 9.3996Z" fill="white"/>
</g>
<defs>
<linearGradient id="paint0_linear_108_494" x1="950" y1="0" x2="950" y2="1900" gradientUnits="userSpaceOnUse">
<stop stop-color="#2AABEE"/>
<stop offset="1" stop-color="#229ED9"/>
</linearGradient>
<clipPath id="clip0_108_494">
<rect width="19" height="19" fill="white"/>
</clipPath>
</defs>
</svg>
