<svg width="19" height="19" viewBox="0 0 19 19" fill="none" xmlns="http://www.w3.org/2000/svg">
<path d="M16.9497 6.84002V6.80043C16.3919 5.27744 15.3798 3.96253 14.0502 3.03358C12.7207 2.10462 11.1379 1.60645 9.51595 1.60645C7.89402 1.60645 6.31123 2.10462 4.98168 3.03358C3.65214 3.96253 2.64001 5.27744 2.0822 6.80043C2.0822 6.80043 2.0822 6.80043 2.0822 6.84002C1.45925 8.55864 1.45925 10.4414 2.0822 12.16V12.1996C2.64001 13.7226 3.65214 15.0375 4.98168 15.9665C6.31123 16.8954 7.89402 17.3936 9.51595 17.3936C11.1379 17.3936 12.7207 16.8954 14.0502 15.9665C15.3798 15.0375 16.3919 13.7226 16.9497 12.1996C16.9497 12.1996 16.9497 12.1996 16.9497 12.16C17.5726 10.4414 17.5726 8.55864 16.9497 6.84002ZM3.37261 11.0834C3.09736 10.0457 3.09736 8.9543 3.37261 7.91668H4.84511C4.71824 8.96843 4.71824 10.0316 4.84511 11.0834H3.37261ZM4.02178 12.6667H5.13011C5.31494 13.373 5.58058 14.0557 5.92178 14.7013C5.14539 14.1724 4.49638 13.4774 4.02178 12.6667ZM5.13011 6.33335H4.02178C4.48955 5.52513 5.13027 4.83034 5.89803 4.29877C5.56502 4.94533 5.30736 5.628 5.13011 6.33335ZM8.70845 15.5959C7.73609 14.8823 7.05319 13.8425 6.7847 12.6667H8.70845V15.5959ZM8.70845 11.0834H6.44428C6.29696 10.0329 6.29696 8.9671 6.44428 7.91668H8.70845V11.0834ZM8.70845 6.33335H6.7847C7.05319 5.15754 7.73609 4.11773 8.70845 3.40418V6.33335ZM14.9784 6.33335H13.8701C13.6853 5.62699 13.4196 4.94429 13.0784 4.29877C13.8548 4.82766 14.5038 5.52264 14.9784 6.33335ZM10.2918 3.40418C11.2641 4.11773 11.947 5.15754 12.2155 6.33335H10.2918V3.40418ZM10.2918 15.5959V12.6667H12.2155C11.947 13.8425 11.2641 14.8823 10.2918 15.5959ZM12.5559 11.0834H10.2918V7.91668H12.5559C12.7033 8.9671 12.7033 10.0329 12.5559 11.0834ZM13.1022 14.7013C13.4434 14.0557 13.709 13.373 13.8939 12.6667H15.0022C14.5276 13.4774 13.8786 14.1724 13.1022 14.7013ZM15.6276 11.0834H14.1551C14.2198 10.5581 14.2516 10.0293 14.2501 9.50002C14.2516 8.97077 14.2198 8.44196 14.1551 7.91668H15.6276C15.9029 8.9543 15.9029 10.0457 15.6276 11.0834Z" fill="white"/>
</svg>
